<?xml version="1.0" standalone="no"?>
<!DOCTYPE svg PUBLIC "-//W3C//DTD SVG 20010904//EN"
 "http://www.w3.org/TR/2001/REC-SVG-20010904/DTD/svg10.dtd">
<svg version="1.0" xmlns="http://www.w3.org/2000/svg"
 width="208.000000pt" height="208.000000pt" viewBox="0 0 208.000000 208.000000"
 preserveAspectRatio="xMidYMid meet">
<metadata>
Created by potrace 1.11, written by Peter Selinger 2001-2013
</metadata>
<g transform="translate(0.000000,208.000000) scale(0.100000,-0.100000)"
fill="#000000" stroke="none">
<path d="M140 1039 l0 -1041 24 16 c14 8 40 24 58 34 32 18 355 205 618 357
244 141 465 269 493 284 16 9 36 21 45 26 10 6 138 79 285 164 147 85 267 158
267 161 0 5 -56 39 -172 105 -38 21 -302 174 -752 434 -257 149 -472 271 -477
271 -5 0 -9 4 -9 9 0 5 -6 11 -13 13 -10 2 -174 95 -337 190 l-30 18 0 -1041z"/>
</g>
</svg>
